# xmcd
#
# Track frame offsets: 
#        150
#        10767
#        22506
#        34847
#        46618
#        57837
#        71753
#        82048
#        92821
#        103000
#        116679
#        132343
#        140757
#        152168
#        161715
#
# Disc length: 2380 seconds
#
# Revision: 0
# Processed by: cddbd v1.5.2PL0 Copyright (c) Steve Scherf et al.
# Submitted via: ExactAudioCopy v0.99pb5
#
DISCID=c1094a0f
DTITLE=Terry Jacks - Seasons In The Sun
DYEAR=2008
DGENRE=Folk/Rock
TTITLE0=Concrete Sea
TTITLE1=I'm Gonna Love You Too
TTITLE2=Pumpkin Eater
TTITLE3=Again And Again
TTITLE4=Since You Broke My Heart
TTITLE5=Fire On The Skyline
TTITLE6=The Love Game
TTITLE7=I'm So Lonely Here Today
TTITLE8=It's Been There From The Start
TTITLE9=Sail Away
TTITLE10=Seasons In The Sun
TTITLE11=Put The Bone In
TTITLE12=If You Go Away
TTITLE13=Me And You
TTITLE14=Rock 'N' Roll
EXTD=
EXTT0=
EXTT1=
EXTT2=
EXTT3=
EXTT4=
EXTT5=
EXTT6=
EXTT7=
EXTT8=
EXTT9=
EXTT10=
EXTT11=
EXTT12=
EXTT13=
EXTT14=
PLAYORDER=
